<?xml version="1.0" encoding="utf-8"?>
<svg version="1.1" id="圖層_1" x="0px" y="0px" viewBox="0 7.168 797.652 210.01" style="enable-background:new 0 0 841.89 595.28;" xmlns="http://www.w3.org/2000/svg">
  <defs/>
  <style type="text/css">
	.st0{fill:#3E3A39;}
	.st1{fill:#595757;}
	.st2{fill:#EA5514;}
	.st3{fill:#C9CACA;}
</style>
  <g>
    <path class="st1" d="M456.49,103.04v38.16h38.28v-29.97l-7.82-8.19H456.49z M482.19,112.73l3.24,3.37v15.4h-19.61v-18.78H482.19z"/>
    <polygon class="st1" points="499.9,141.2 538.18,141.2 538.18,131.51 509.23,131.51 509.23,126.02 538.18,126.02 538.18,116.33 &#10;&#9;&#9;509.23,116.33 509.23,112.73 538.18,112.73 538.18,103.04 499.9,103.04 &#9;"/>
    <polygon class="st1" points="543.31,141.2 581.59,141.2 581.59,131.51 552.65,131.51 552.65,112.73 581.59,112.73 581.59,103.04 &#10;&#9;&#9;543.31,103.04 &#9;"/>
    <rect x="586.73" y="103.04" class="st1" width="9.34" height="38.16"/>
    <polygon class="st1" points="610.64,103.04 601.2,103.04 601.2,141.2 640.01,141.2 640.01,131.51 610.64,131.51 &#9;"/>
    <rect x="644.61" y="103.04" class="st1" width="9.34" height="38.16"/>
    <path class="st1" d="M659.08,141.2h38.28v-38.16h-38.28V141.2z M688.03,112.73v18.78h-19.61v-18.78H688.03z"/>
    <polygon class="st1" points="731.44,103.04 731.44,126.42 711.58,103.41 711.26,103.04 702.5,103.04 702.5,141.2 711.83,141.2 &#10;&#9;&#9;711.83,117.83 731.7,140.84 732.01,141.2 740.78,141.2 740.78,103.04 &#9;"/>
    <rect x="610.74" y="102.98" class="st2" width="29.27" height="28.49"/>
    <polygon class="st1" points="232.86,100.82 232.86,95.87 214.69,95.87 214.69,92.12 209.71,92.12 209.71,95.87 191.92,95.87 &#10;&#9;&#9;191.92,100.82 209.71,100.82 209.71,107.86 191.92,107.86 191.92,141.27 232.86,141.27 232.86,107.86 214.69,107.86 214.69,100.82 &#10;&#9;&#9;&#9;"/>
    <g>
      <path class="st1" d="M296.49,71.98v3.37h-32.11v-3.37h-4.49l-4.28,3.81v4.51h3.79v39.63h-3.78l-0.05,5.07l3.51,0.04l-3.01,16.8&#10;&#9;&#9;&#9;l5.34,0.13l2.84-16.83l32.45-0.17l2.83,16.17h4.97l-2.74-16.19l3.88-0.08v-4.93h-4.16V80.3h4.16v-4.53l-4.67-3.79H296.49z&#10;&#9;&#9;&#9; M296.49,80.3v10.04h-32.11V80.3H296.49z M296.49,110.27v9.66h-32.11v-9.66H296.49z"/>
      <polygon class="st1" points="340.13,141.36 340.07,83.97 312.82,83.97 312.82,76.93 340.07,76.93 340.07,71.98 307.84,71.98 &#10;&#9;&#9;&#9;307.84,141.36 312.82,141.36 312.82,88.91 335.27,88.83 335.27,141.36 &#9;&#9;"/>
    </g>
    <polygon class="st1" points="440.31,71.98 355.85,71.98 355.85,76.93 435.33,76.93 435.33,81.73 355.85,81.73 355.85,87.04 &#10;&#9;&#9;435.33,87.04 435.33,92.21 355.85,92.21 355.85,97.16 440.31,97.16 &#9;"/>
    <polygon class="st1" points="360.83,96.74 355.85,96.67 355.85,130.29 360.83,130.29 &#9;"/>
    <polygon class="st1" points="399.37,103.73 405.68,97.13 399.66,96.66 354.64,140.6 361.3,140.53 434.43,140.9 434.43,140.9 &#10;&#9;&#9;441.73,140.82 &#9;"/>
    <polygon class="st1" points="435.33,130.29 440.31,130.29 440.31,96.74 435.33,96.67 &#9;"/>
    <polygon class="st1" points="178.12,76.15 178.15,79.45 159.02,76.05 159.04,72.68 &#9;"/>
    <polygon class="st1" points="178.95,80.39 158.23,76.71 158.26,71.74 178.91,75.49 &#9;"/>
    <path class="st1" d="M243.46,80.21v-4.94h-29.02l-1.86-4.69l-5.04,0.17l1.49,4.52h-27.71v4.94h1.45v5.17h-1.45v55.89h4.98V90.7&#10;&#9;&#9;h51.79v50.57h5.36V85.38h-1.54v-5.17H243.46z M236.93,85.38h-49.18v-5.17h49.18V85.38z"/>
    <polygon class="st1" points="178.88,87.11 158.23,83.35 158.2,88.32 178.92,92.01 &#9;"/>
    <polygon class="st1" points="159.82,95.28 159.82,141.14 164.81,141.14 164.81,95.37 &#9;"/>
    <polygon class="st2" points="395.7,107.65 361.46,140.66 434.04,140.9 &#9;"/>
    <rect x="456.14" y="71.98" class="st2" width="284.63" height="26.01"/>
    <rect x="191.92" y="107.86" class="st2" width="40.94" height="33.41"/>
  </g>
  <g>
    <g>
      <g>
        <polygon class="st1" points="144.61,108.31 137.7,112.33 110.97,96.9 105.79,99.91 132.52,115.34 125.61,119.36 98.88,103.92 &#10;&#9;&#9;&#9;&#9;91.97,107.94 118.7,123.37 111.79,127.39 78.37,108.1 111.2,89.02 &#9;&#9;&#9;"/>
      </g>
      <g>
        <g>
          <path class="st2" d="M144.61,104.52c-2.76,1.61-4.15,2.41-6.91,4.02c-8.94-5.16-17.89-10.33-26.83-15.49&#10;&#9;&#9;&#9;&#9;&#9;c-2.07,1.2-3.11,1.81-5.18,3.01c8.94,5.16,17.89,10.33,26.83,15.49c-2.76,1.61-4.15,2.41-6.91,4.02&#10;&#9;&#9;&#9;&#9;&#9;c-8.94-5.16-17.89-10.33-26.83-15.49c-2.76,1.61-4.15,2.41-6.91,4.02c8.94,5.16,17.89,10.33,26.83,15.49&#10;&#9;&#9;&#9;&#9;&#9;c-2.76,1.61-4.15,2.41-6.91,4.02c-11.18-6.45-22.36-12.91-33.54-19.36c10.94-6.36,21.88-12.72,32.82-19.07&#10;&#9;&#9;&#9;&#9;&#9;C122.25,91.61,133.43,98.06,144.61,104.52z"/>
        </g>
      </g>
    </g>
    <g>
      <g>
        <polygon class="st1" points="146.13,87.7 146.09,103.19 130.19,94.01 130.2,90.75 142.92,98.09 142.93,94.83 130.21,87.49 &#10;&#9;&#9;&#9;&#9;130.22,84.22 142.94,91.57 142.94,89.12 130.22,81.78 130.23,78.52 &#9;&#9;&#9;"/>
      </g>
      <g>
        <polygon class="st3" points="146.09,110.16 146.13,125.53 113.35,144.46 113.3,129.09 &#9;&#9;&#9;"/>
      </g>
      <g>
        <polygon class="st1" points="76.77,109.91 76.73,125.29 109.51,144.21 109.55,128.84 &#9;&#9;&#9;"/>
      </g>
      <g>
        <polygon class="st1" points="127.59,77.26 127.55,92.75 111.65,83.57 111.66,80.31 124.38,87.65 124.39,84.39 111.67,77.05 &#10;&#9;&#9;&#9;&#9;111.68,73.79 124.4,81.13 124.4,78.69 111.68,71.34 111.69,68.08 &#9;&#9;&#9;"/>
      </g>
      <g>
        <polygon class="st1" points="76.77,102.41 76.73,87.04 109.51,68.11 109.55,83.49 &#9;&#9;&#9;"/>
      </g>
    </g>
  </g>
</svg>