<?xml version="1.0" encoding="UTF-8"?> <svg xmlns="http://www.w3.org/2000/svg" xmlns:xlink="http://www.w3.org/1999/xlink" version="1.1" x="0" y="0" width="1200" height="500" viewBox="0, 0, 1200, 500"><g id="Layer_1"><path d="M352.265,377.901 C351.46,376.767 351.818,376.637 351.389,376.25 C350.541,375.486 349.784,375.578 349.809,375.173 C349.882,373.873 351.475,372.848 351.734,372.515 C352.144,371.988 353.337,370.948 353.56,369.909 C353.993,367.89 350.962,367.624 350.196,368.063 C349.539,368.444 347.635,372.233 346.227,373.846 C345.692,374.461 345.231,374.34 344.89,374.028 C343.713,372.963 347.301,369.543 346.06,368.421 C344.223,366.762 342.353,367.394 340.886,369.484 C340.886,369.484 339.179,372.162 337.421,374.357 C335.944,376.198 335.197,379.698 336.827,380.344 C338.568,381.033 339.957,379.415 340.315,377.522 C340.432,376.882 340.229,376.809 340.104,376.254 C339.949,375.574 340.48,375.294 340.472,374.909 C340.442,373.76 340.34,373.103 341.217,373.189 C341.545,373.225 342.288,374.557 342.457,374.934 C342.771,375.645 343.091,376.882 342.756,377.74 C341.641,380.61 340.005,383.437 341.198,384.958 C341.474,385.305 343.198,385.46 343.836,385.127 C344.564,384.74 344.413,384.045 344.882,382.527 C345.066,381.941 346.257,381.238 346.449,380.727 C346.794,379.813 346.807,378.219 347.299,378.332 C348.286,378.556 349.656,380.51 349.939,382.692 C350.11,383.999 349.937,385.487 349.269,385.995 C349.02,386.182 347.874,387.736 348.786,388.809 C349.83,390.033 351.012,389.849 351.631,389.51 C354.355,388.037 353.659,385.046 353.473,381.93 C353.372,380.292 352.755,378.591 352.265,377.901 M84.725,308.031 L79.75,310.537 L86.409,323.762 L79.467,327.26 L74.258,316.914 L69.358,319.381 L74.569,329.726 L69.362,332.35 L62.893,319.504 L57.918,322.008 L66.902,339.85 L93.901,326.255 z M360.243,316.406 L357.707,321.351 L369.886,327.601 L379.811,344.489 L382.738,338.783 L376.277,327.823 L388.931,326.714 L391.948,320.839 L372.308,322.596 z M58.294,300.024 L67.207,293.212 L69.496,300.842 z M82.394,301.595 L74.921,301.039 L71.613,290.021 L77.542,285.441 L75.835,279.744 L50.068,299.656 L51.61,304.792 L84.08,307.217 z M84.449,193.396 L72.37,187.927 L77.438,176.741 L89.514,182.207 L91.807,177.144 L64.27,164.677 L61.977,169.738 L72.283,174.404 L67.217,185.592 L56.909,180.927 L54.602,186.026 L82.139,198.495 z M60.826,219.99 C65.236,221.105 69.236,220.67 72.824,218.689 C76.356,216.693 78.639,213.651 79.672,209.554 C80.396,206.692 80.314,204.012 79.432,201.516 L73.358,199.982 C74.574,202.349 74.816,204.976 74.086,207.866 C73.427,210.479 71.992,212.402 69.78,213.63 C67.535,214.883 65.017,215.155 62.226,214.45 C59.435,213.745 57.355,212.337 55.987,210.228 C54.604,208.062 54.225,205.734 54.853,203.248 C55.508,200.66 56.844,198.541 58.863,196.886 L52.794,195.352 C51.039,197.129 49.838,199.296 49.191,201.859 C48.152,205.979 48.71,209.755 50.873,213.186 C53.041,216.594 56.359,218.86 60.826,219.99 M53.941,281.437 C55.37,281.263 56.734,280.782 58.029,279.998 C58.7,279.55 59.468,278.596 60.332,277.133 C60.546,276.742 60.778,276.127 61.023,275.288 C61.309,274.313 61.479,273.681 61.531,273.386 L62.014,271.292 L62.481,269.043 L62.711,268.074 C62.889,267.401 63.083,266.855 63.293,266.438 C63.667,265.451 64.439,264.886 65.609,264.744 C66.697,264.612 67.605,264.997 68.341,265.901 C69.075,266.802 69.531,268.014 69.718,269.53 C69.939,271.357 69.778,273.254 69.236,275.225 C68.663,277.175 67.902,278.784 66.954,280.048 L73.383,279.263 C75.189,276.223 75.843,272.673 75.348,268.61 C74.971,265.522 73.831,263.064 71.925,261.233 C70.021,259.404 67.625,258.666 64.738,259.017 C61.968,259.356 59.989,260.509 58.809,262.482 C57.698,264.313 56.893,266.394 56.395,268.725 C56.227,269.503 56.033,270.52 55.809,271.773 C55.66,272.706 55.449,273.474 55.177,274.083 C54.78,275.096 54.15,275.654 53.294,275.759 C51.321,275.999 50.147,274.589 49.775,271.531 C49.398,268.443 49.986,265.409 51.537,262.427 L45.536,263.158 C44.212,266.087 43.741,269.135 44.126,272.296 C44.509,275.432 45.582,277.822 47.348,279.458 C49.087,281.102 51.283,281.761 53.941,281.437 M48.932,248.31 L73.582,248.962 L73.73,243.368 L49.08,242.715 L49.308,234.089 L43.739,233.94 L43.134,256.749 L48.704,256.896 z M269.102,416.305 C267.783,416.338 267.629,417.966 267.505,419.276 L267.382,420.271 C266.995,422.221 263.618,424.232 260.637,425.134 L259.831,425.395 C258.398,425.87 257.266,426.245 255.63,425.447 C254.915,425.1 254.333,423.644 254.333,422.207 C254.335,421.069 254.709,420.234 255.356,419.92 C255.636,419.782 255.71,419.878 255.829,420.041 C256.111,420.42 256.471,420.658 257.984,419.713 C258.116,419.633 258.182,419.288 258.295,418.639 C258.385,418.102 258.494,417.491 258.668,417.121 L259.254,416.033 L259.649,415.271 C259.934,414.039 259.593,412.848 258.71,412.005 C257.726,411.066 256.256,410.746 254.77,411.158 C252.578,411.767 250.5,413.321 248.665,414.696 C246.795,416.095 245.18,417.305 243.811,417.319 C243.324,417.324 242.966,417.075 242.656,416.857 C242.361,416.65 242.083,416.453 241.769,416.545 C241.322,416.675 240.861,417.376 240.23,418.891 C240.102,419.196 240.056,419.767 239.999,420.428 C239.912,421.497 239.803,422.828 239.282,423.192 C239.142,423.288 238.976,423.313 238.78,423.265 C238.577,423.209 238.434,423.094 238.355,422.903 C237.993,422.089 238.872,420.328 238.88,420.311 C238.886,420.297 239.129,418.778 239.129,418.778 C239.175,418.309 239.217,417.867 239.357,417.508 C240.167,415.403 242.075,414.966 244.09,414.503 C245.136,414.261 246.669,412.974 246.925,412.62 C247.422,411.917 246.688,411.158 246.098,410.547 L245.991,410.434 C245.012,409.413 244.048,409.162 243.037,409.677 C242.2,410.106 241.165,411.191 239.968,412.449 C239.062,413.403 238.121,414.388 237.148,415.208 L236.805,415.493 C234.798,417.133 232.507,419.146 232.618,420.163 C232.635,420.361 232.748,420.512 232.943,420.615 C233.761,421.031 234.566,420.148 235.273,419.368 C235.813,418.773 236.326,418.211 236.669,418.462 C236.79,418.547 236.855,418.639 236.874,418.752 C236.907,418.983 236.769,419.296 236.445,419.725 L236.296,419.92 C235.905,420.418 235.539,420.889 235.357,422.299 C235.097,424.272 235.495,424.715 236.162,425.447 L236.84,426.263 C237.142,426.678 237.158,427.341 237.171,427.778 L237.24,428.266 C237.696,428.793 238.052,428.755 238.313,428.724 C238.52,428.697 238.648,428.684 238.79,428.92 C239.117,429.464 238.939,430.791 238.669,430.954 C238.652,430.962 238.596,430.996 238.501,430.845 C238.265,430.464 237.549,430.58 237.282,430.619 C236.549,430.728 236.321,431.329 236.121,431.86 L235.962,432.241 C235.051,434.145 236.039,435.113 237.129,435.808 C237.778,436.226 238.336,436.584 239.522,435.99 C240.537,435.479 240.711,433.787 240.887,431.994 L240.947,431.412 C241.123,429.736 241.412,428.314 241.738,427.5 C242.133,426.51 242.05,425.747 241.979,425.129 L241.962,424.253 C242.179,423.148 242.799,422.73 243.583,422.192 C243.991,421.914 244.458,421.598 244.914,421.14 L245.966,420.054 C247.247,418.721 248.259,417.665 250.044,416.696 C250.634,416.378 251.236,415.874 251.82,415.397 C252.615,414.731 253.442,414.049 254.27,413.777 L254.442,413.721 C255.174,413.476 256.538,413.018 257.007,413.495 C257.151,413.637 257.586,414.836 257.341,415.409 C257.256,415.608 257.095,415.706 256.85,415.7 C256.436,415.69 256.385,415.449 256.339,415.066 C256.306,414.809 256.277,414.541 256.048,414.407 C255.643,414.164 254.339,414.376 254.325,414.378 C253.829,414.464 253.45,415.03 253.013,415.69 C252.695,416.162 252.335,416.704 251.885,417.116 C250.222,418.648 249.856,421.435 250.362,423.397 C250.946,425.657 252.14,426.5 252.854,427.004 L253.285,427.339 C254.973,429.125 257.314,430.515 262.965,428.596 C266.679,427.335 269.556,425.192 270.857,422.719 C271.455,421.583 271.369,418.637 270.466,417.175 C270.1,416.585 269.637,416.294 269.102,416.305 M306.208,392.015 C307.187,390.32 307.369,388.353 305.514,388.044 C304.832,387.931 304.539,387.797 303.371,388.454 C301.382,389.56 302.16,390.477 300.833,391.274 C300.258,391.621 299.697,389.085 300.71,388.23 C302.836,386.435 304.926,383.736 304.212,381.393 C303.629,379.468 302.578,377.878 300.041,380.139 C298.716,381.324 297.024,383.052 296.049,385.847 C294.798,389.437 294.061,393.435 292.306,395.843 C291.176,397.4 291.002,396.465 289.67,397.607 C285.956,400.797 283.925,403.747 285.713,405.666 C286.956,406.992 288.716,406.624 289.67,406.346 C290.839,406.001 291.54,405.038 291.737,405.689 C291.933,406.344 290.929,409.12 290.438,411.355 C290.245,412.246 289.341,414.294 288.078,415.878 C285.967,418.524 285.358,419.422 285.973,420.263 C286.724,421.288 288.101,421.177 289.245,420.399 C290.53,419.535 295.003,412.873 296.423,405.469 C296.681,404.153 297.597,402.626 297.974,401.561 C298.492,400.105 298.168,399.151 298.99,398.161 C301.451,395.19 304.959,394.167 306.208,392.015 M98.117,167.474 L72.519,151.396 L69.563,156.101 L95.161,172.18 z M334.852,367.375 C334.852,367.375 334.492,367.005 334.461,366.994 C333.589,366.687 333.725,364.239 333.819,364.153 C335.053,363.097 336.951,367.689 334.852,367.375 M334.281,356.736 C334.72,355.247 334.229,354.901 334.641,354.24 C335.156,353.406 336.354,353.617 337.246,354.383 C338.08,355.104 338.666,356.341 338.087,357.054 C337.438,357.86 336.442,356.904 336.001,357.333 C335.471,357.845 335.674,359.153 336.543,359.065 C337.279,358.996 337.775,359.816 337.972,360.672 C338.055,361.027 337.718,361.824 337.852,362.147 C338.045,362.607 338.955,362.726 339.181,363.176 C339.398,363.609 338.698,364.927 337.924,364.86 C336.712,364.76 336.926,362.387 336.426,361.889 C333.791,359.259 334.082,357.404 334.281,356.736 M332.421,368.578 C331.816,368.745 331.597,369.072 331.038,368.344 C329.812,366.731 329.607,364.59 330.189,363.791 C331.429,362.078 331.375,364.938 331.488,365.308 C331.72,366.109 333.011,368.411 332.421,368.578 M331.488,374.606 C330.963,374.836 330.316,373.58 329.381,372.693 C328.034,371.413 326.302,369.791 326.433,369.509 C326.655,369.028 326.419,367.032 326.94,367.116 C327.827,367.266 328.714,369.603 329.254,370.333 C330.139,371.896 330.595,370.896 331.04,372.725 C331.298,373.767 332.178,374.298 331.488,374.606 M338.047,370.139 C340.06,367.758 341.426,365.147 342.604,363.63 C343.248,362.81 344.21,362.191 344.8,361.287 C345.472,360.253 346.223,361.582 346.853,361.46 C348.489,361.13 349.968,359.868 349.897,358.594 C349.935,357.784 349.311,356.525 347.767,355.786 C344.878,354.399 342.746,360.893 341.058,360.375 C340.681,360.257 340.629,357.573 340.662,358.107 C340.566,356.569 340.198,354.627 339.193,353.046 C338.367,351.746 337.698,351.889 336.93,351.41 C336.308,351.021 335.863,350.422 334.99,350.334 C332.825,350.113 331.833,351.788 331.894,353.247 C331.961,354.807 333.233,357.517 332.39,358.515 C331.459,359.626 330.484,359.573 330.099,358.835 C329.551,357.778 329.446,355.604 328.76,355.228 C328.373,355.014 327.505,355.617 327,356.571 C326.498,357.529 327.548,359.812 326.381,360.264 C325.85,360.471 325.17,359.362 324.686,359.479 C323.337,359.808 324.9,363.404 324.107,364.417 C322.701,366.203 322.921,367.369 323.766,369.057 C324.387,370.296 325.822,372.038 326.596,373.472 C327.484,375.118 329.107,376.112 328.977,376.913 C328.833,377.788 328.436,377.254 327.915,377.947 C327.168,378.953 329.521,384.403 332.618,386.175 C333.206,386.512 334.81,386.629 335.273,385.732 C336.122,384.094 332.716,383.137 332.051,381.372 C331.607,380.19 334.239,376.909 335.568,374.424 C336.177,373.29 336.825,371.574 338.047,370.139 M157.497,395.732 C157.283,397.419 154.836,398.592 153.114,398.996 C152.467,399.145 151.706,399.72 151.312,399.81 C150.27,400.055 150.383,399.54 151.377,398.53 C151.934,397.965 153.16,396.709 152.381,395.814 C151.618,394.939 152.925,392.732 153.641,393.387 C154.959,394.592 157.549,395.318 157.497,395.732 M161.397,385.652 C160.955,384.857 162.468,382.955 160.235,382.941 C159.926,382.937 158.637,382.763 158.252,382.987 C157.863,383.209 157.2,384.698 157.034,384.633 C155.953,384.215 154.225,383.393 151.729,382.761 C149.369,382.171 148.046,380.476 146.161,381.06 C145.366,381.298 144.726,381.361 144.023,381.849 C142.814,382.683 143.094,384.522 144.483,385.376 C145.082,385.742 149.172,385.115 150.766,385.468 C152.618,385.878 154.509,386.397 154.679,387.18 C154.758,387.56 154.302,388.213 153.553,388.749 C150.829,390.686 149.411,389.751 147.936,389.761 C147.609,389.765 147.714,389.136 148.247,388.843 C148.954,388.458 150.304,388.33 150.352,388.062 C150.413,387.732 148.262,386.987 146.26,386.849 C145.49,386.801 144.873,386.947 144.218,387.083 C142.278,387.479 139.431,390.638 138.312,394.038 C137.383,396.85 136.113,398.984 137.56,400.216 C139.293,401.689 140.274,399.791 141.504,396.634 C142.203,394.839 143.87,393.864 144.77,393.36 C145.13,393.155 146.429,391.355 148.781,392.9 C148.883,392.964 148.71,393.582 148.011,393.559 C147.101,393.536 145.904,394.048 145.676,394.582 C145.402,395.224 145.735,396.078 145.628,396.969 C145.517,397.866 143.78,397.651 144.979,399.442 C145.073,399.58 143.942,400.002 143.521,399.737 C143.324,399.609 143.437,399.224 143.226,399.138 C142.58,398.879 141.515,400.389 141.345,400.538 C140.391,401.408 138.956,401.726 137.447,402.122 C134.885,402.789 131.412,403.996 129.447,404.852 C127.121,405.877 127.501,407.591 130.001,408.758 C131.117,409.281 134.257,407.93 135.807,407.35 C136.901,406.942 139.222,406.137 140.224,406.411 C141.297,406.704 136.732,412.016 136.822,412.838 C136.979,414.258 139.031,415.853 139.989,414.114 C140.423,413.323 140.818,412.252 141.416,411.032 C141.881,410.087 142.711,409.103 143.195,408.277 C143.889,407.095 144.546,405.927 144.879,406.043 C145.636,406.308 145.494,407.57 146.168,409.308 C147.754,413.397 152.158,417.865 155.9,419.692 C158.141,420.784 159.907,419.79 158.957,416.861 C158.744,416.196 158.574,415.736 158.438,415.411 C157.982,414.309 157.982,415.499 155.846,413.913 C155.239,413.461 152.771,410.863 151.427,409.718 C150.785,409.166 149.793,407.716 149.185,406.315 C148.793,405.417 147.695,404.959 149.586,404.044 C150.729,403.494 149.934,402.166 150.904,401.99 C151.729,401.841 153.291,401.902 154.348,401.666 C155.622,401.385 157.248,400.444 159.244,399.737 C161.108,399.071 163.744,395.446 162.706,393.977 C162.001,392.969 160.558,392.496 158.758,391.391 C157.848,390.832 155.863,391.954 156.852,390.554 C157.53,389.59 157.637,389.127 158.685,389.09 C160.33,389.031 165.146,391.663 165.786,388.885 C166.301,386.648 162.34,387.355 161.397,385.652 M242.481,402.528 C242.941,401.492 243.621,400.852 244.226,400.285 C244.59,399.938 244.908,399.64 245.104,399.306 C245.462,398.724 245.445,398.092 245.056,397.582 C244.636,397.023 243.88,396.757 243.221,396.939 C242.002,397.274 240.24,399.475 239.416,400.783 C238.92,401.572 238.583,402.406 238.255,403.216 C237.897,404.103 237.558,404.94 237.033,405.695 C236.476,406.492 236.859,407.641 237.483,408.43 C238.054,409.147 239.077,409.842 240.079,409.442 C240.292,409.352 240.397,409.114 240.514,408.838 C240.723,408.363 240.981,407.762 241.924,407.607 C242.372,407.534 242.692,407.838 243.062,408.185 C243.512,408.605 244.021,409.08 244.851,408.869 C245.69,408.656 246.303,407.57 246.843,406.612 L247.253,405.911 C247.971,404.781 251.395,400.733 252.703,400.247 C253.329,400.011 253.722,399.961 253.937,400.09 C254.178,400.235 254.232,400.613 254.306,401.145 L254.368,401.597 C254.446,402.059 254.785,402.275 255.086,402.461 C255.348,402.624 255.58,402.77 255.574,403.051 C255.569,403.699 255.055,404.078 254.509,404.473 C253.973,404.871 253.417,405.275 253.362,405.971 C253.293,406.821 253.527,407.557 253.992,407.932 C254.35,408.225 254.827,408.292 255.371,408.137 C256.13,407.915 256.475,407.089 256.839,406.216 C257.067,405.672 257.302,405.109 257.651,404.637 C258.164,403.942 258.689,403.793 259.252,403.634 C259.731,403.498 260.224,403.358 260.683,402.844 C261.097,402.373 261.266,401.821 261.158,401.289 C261.026,400.645 260.503,400.08 259.691,399.697 C258.559,399.163 258.021,399.869 257.664,400.337 C257.536,400.502 257.417,400.664 257.331,400.67 L257.235,400.615 C256.597,399.973 256.938,399.235 257.302,398.456 C257.477,398.082 257.657,397.695 257.731,397.308 C257.827,396.785 257.728,396.385 257.444,396.149 C257.026,395.795 256.241,395.829 255.111,396.249 C254.63,396.425 254.247,396.856 253.841,397.312 C253.448,397.751 253.04,398.207 252.509,398.475 C251.08,399.186 250.126,400.034 249.36,400.712 C248.801,401.212 248.36,401.599 247.933,401.751 C247.627,401.86 247.063,401.91 246.464,401.959 C245.41,402.051 244.213,402.151 243.784,402.616 L243.119,403.611 C242.828,404.105 242.527,404.62 242.265,404.674 L242.083,404.628 C241.652,404.321 242.004,403.557 242.345,402.816 z M114.858,371.825 C115.304,372.139 114.708,372.536 113.869,372.777 C113.235,372.963 109.253,373.34 109.126,372.248 C109.027,371.48 110.758,369.371 112.678,368.668 C113.266,368.247 113.63,367.134 114.189,366.896 C115.093,366.475 116.584,367.796 116.404,368.076 C116.227,368.352 114.86,368.727 114.586,369.586 C114.298,370.482 114.099,371.283 114.858,371.825 M106.872,368.484 C105.285,369.668 104.692,371.227 104.105,371.164 C103.217,371.07 102.512,370.331 101.711,369.992 C100.288,369.394 98.983,369.057 98.836,368.714 C98.529,367.984 99.516,368.568 100.211,368.049 C102.688,366.191 103.764,365.04 104.831,365.249 C105.937,365.465 106.418,365.934 107.067,366.036 C108.37,366.239 109.207,365.967 109.142,366.224 C109.09,366.444 108.113,367.555 106.872,368.484 M97.552,365.429 C97.324,363.802 100.569,364.149 101.077,364.643 C102.019,365.551 97.807,367.172 97.552,365.429 M112.346,362.755 C112.731,363.404 112.051,363.873 110.592,363.722 C108.446,363.494 105.345,363.182 105.649,361.914 C105.96,360.613 111.768,361.789 112.346,362.755 M123.85,364.115 C121.94,363.122 120.534,362.358 120.139,361.207 C120.108,361.111 119.739,359.908 119.325,359.732 C118.913,359.55 118.779,360.247 118.07,359.688 C117.358,359.13 114.942,356.605 112.858,355.824 C111.982,355.496 110.933,353.705 109.86,353.579 C108.814,353.458 106.126,354.328 107.159,356.592 C107.611,357.582 110.454,357.314 112.584,359.017 C113.622,359.845 114.752,359.326 115.103,360.783 C115.243,361.362 114.948,361.297 114.637,361.329 C114.455,361.347 110.638,359.561 107.167,358.856 C104.745,358.364 102.596,357.977 101.789,360.197 C101.615,360.672 102.098,362.492 100.684,362.038 C99.347,361.607 97.163,361.345 96.336,362.015 C96.031,362.264 95.033,363.318 94.803,363.626 C93.755,365.042 95.642,366.283 95.108,366.745 C94.872,366.95 93.508,366.007 92.263,365.766 C91.426,365.607 90.505,366.496 90.164,366.957 C89.643,367.664 90.185,367.829 91.478,369.032 C93.543,370.957 94.445,371.287 97.623,372.775 C98.267,373.076 99.498,373.854 99.931,374.547 C100.408,375.311 99.395,375.963 98.441,375.482 C96.5,374.513 88.221,370.509 89.325,375.154 C89.589,376.277 91.259,377.754 91.855,378.043 C92.524,378.361 94.568,378.612 94.702,379.648 C94.847,380.809 91.698,381.826 92.286,383.746 C92.665,384.993 93.374,385.93 94.188,385.518 C95.487,384.855 97.83,381.972 98.533,382.022 C100.604,382.175 103.686,387.037 105.812,385.83 C108.291,384.426 107.975,382.554 107.199,382.033 C105.803,381.1 103.41,379.941 102.343,378.844 C101.927,378.411 102.736,377.802 103.408,377.411 C105.036,376.457 107.465,380.254 109.875,382.273 C111.678,383.782 111.277,383.955 112.36,385.031 C113.885,386.548 116.329,386.083 117.074,383.447 C117.358,382.449 112.567,378.836 110.735,377.608 C108.425,376.06 107.08,375.681 107.036,374.493 C106.992,373.164 108.609,374.099 108.647,374.133 C110.695,375.995 120.204,376.936 119.727,370.89 C119.562,368.829 121.285,368.624 119.325,367.139 C119.151,367.007 116.967,365.835 116.825,365.231 C116.689,364.653 117.618,363.647 118.624,364.335 C119.999,365.274 122.026,367.18 122.319,367.321 C125.156,368.729 127.225,365.871 123.85,364.115 M210.027,415.798 C208.883,416.531 208.232,416.855 207.493,416.742 C207.102,416.685 206.322,415.763 206.539,415.33 C207.085,414.229 206.723,413.79 206.993,413.179 C207.433,412.181 208.895,412.543 209.809,412.547 C211.038,412.551 211.807,412.089 211.902,412.978 C211.902,412.978 211.531,414.828 210.027,415.798 M203.087,408.139 C202.296,409.38 201.271,409.896 200.729,409.304 C200.326,408.871 202.37,407.017 203.278,405.84 C204.418,404.36 204.654,404.614 205.046,404.938 C205.491,405.308 204.165,406.451 203.087,408.139 M190.176,406.517 C188.155,407.095 187.634,408.624 187.316,409.47 C187.168,409.867 186.668,409.733 186.599,409.331 C186.438,408.407 186.471,406.781 187.245,405.574 C188.285,403.948 188.697,402.63 189.524,401.586 C190.566,400.264 191.934,399.722 192.237,400.076 C192.819,400.754 191.425,401.532 191.369,402.185 C191.212,404.076 190.884,404.08 190.358,404.961 C189.988,405.589 191.214,406.22 190.176,406.517 M214.87,408.329 C212.902,407.436 209.638,409.327 208.791,408.183 C208.439,407.706 209.272,406.769 209.404,406.099 C209.615,405.011 208.987,404.047 208.123,403.821 C207.562,403.672 207.579,402.952 208.242,402.898 C209.19,402.821 209.65,402.925 210.615,403.021 C212.437,403.206 213.487,403.103 214.617,401.488 C214.96,400.998 214.801,399.908 214.065,399.36 C213.123,398.657 210.115,398.548 206.96,398.603 C203.558,398.657 199.978,398.55 199.252,399.781 C198.905,400.379 198.185,401.067 197.8,401.831 C197.235,402.944 196.911,403.959 196.271,404.396 C194.258,405.783 193.668,408.656 193.285,407.677 C193.022,407.013 192.034,407.059 191.44,406.917 C191.164,406.852 191.204,406.093 191.518,405.808 C191.833,405.528 191.877,405.789 192.329,405.607 C193.568,405.114 195.078,403.798 195.329,402.867 C195.957,400.525 196.907,398.753 195.867,397.393 C194.972,396.226 193.421,395.713 191.821,395.607 C190.984,395.55 189.614,395.667 188.737,396.04 C187.229,396.674 186.703,398.546 185.783,400.806 C185.408,401.731 184.542,402.885 184.143,404.329 C183.636,406.164 183,408.729 182.703,410.049 C182.042,413.024 181.906,415.106 182.59,417.211 C182.95,418.313 182.582,419.861 184.141,419.953 C185.434,420.027 184.829,415.24 185.237,413.058 C185.4,412.162 185.616,411.313 186.325,410.93 C186.549,410.813 186.749,410.39 187.145,410.591 C187.542,410.792 186.867,412.081 187.505,412.091 C188.639,412.108 189.237,410.723 190.133,411.246 C190.829,411.66 189.794,412.855 188.894,413.616 C187.126,415.114 186.298,417.911 188.729,418.583 C189.76,418.87 190.992,417.46 191.509,416.037 C191.915,414.924 191.804,414.208 192.212,413.336 C192.541,412.648 193.145,412.503 193.614,411.677 C194.064,410.882 194.413,409.959 195.087,409.02 C195.863,407.936 196.98,406.84 197.712,405.963 C198.541,404.988 199.248,404.034 200.158,403.478 C201.066,402.919 202.397,402.557 203.196,403.109 C203.769,403.505 201.393,404.873 199.955,406.199 C197.945,408.053 196.786,410.428 196.327,413.48 C196.143,414.717 195.474,418.114 196.29,418.849 C196.88,419.384 197.397,419.594 198.169,419.516 C200.068,419.324 199.39,415.746 200.495,414.24 C200.736,413.915 200.955,413.304 201.512,413.608 C202.064,413.913 200.539,421.056 199.581,425.253 C198.918,428.121 198.8,430.51 198.606,432.785 C198.522,433.735 198.484,434.638 199.874,434.91 C201.842,435.293 202.604,431.075 203.066,428.466 C203.453,426.297 204.186,423.075 205.121,421.966 C206.156,420.746 208.611,419.96 210.117,419.625 C211.659,419.29 212.946,417.47 213.824,416.757 C215.011,415.794 216.069,412.518 216.316,411.34 C216.661,409.723 216.153,408.909 214.87,408.329 M117.769,352.115 C117.769,352.115 116.641,351.232 116.086,351.15 C115.429,350.981 115.356,351.389 114.762,351.443 C114.145,351.374 113.735,351.845 113.53,352.336 C112.99,353.615 114.327,355.169 116.54,356.215 C119.223,357.477 119.894,353.581 117.769,352.115 M314.349,399.011 C312.61,400.015 310.483,400.237 309.183,400.509 C305.248,401.331 302.141,399.902 301.152,400.13 C300.16,400.354 300.582,402.818 301.336,404.009 C303.491,407.411 310.223,406.375 314.215,405.235 C315.753,404.796 317.422,403.298 318.763,402.484 C320.182,401.62 321.588,401.379 321.519,400.41 C321.448,399.444 321.923,399.235 321.374,398.477 C320.098,396.718 317.349,397.274 314.349,399.011 M120.647,358.563 C119.329,358.887 120.555,360.255 120.844,360.525 C121.133,360.795 121.455,360.73 121.719,360.919 C122.735,361.655 123.399,362.921 124.081,363.015 C126.698,363.375 127.342,361.435 125.646,359.755 C124.612,358.732 122.681,358.056 120.647,358.563 M338.813,151.084 L354.029,138.998 L347.418,161.92 L350.297,165.541 L373.967,146.739 L370.58,142.477 L355.433,154.513 L362.048,131.734 L359.075,127.991 L335.405,146.793 z M331.712,139.253 C334.902,138.935 337.878,137.19 340.631,134.014 L352.125,120.775 L347.897,117.105 L336.262,130.508 C334.737,132.271 333.145,133.261 331.492,133.487 C329.839,133.711 328.308,133.211 326.9,131.989 C325.511,130.782 324.81,129.344 324.799,127.677 C324.789,126.012 325.546,124.296 327.076,122.534 L338.71,109.13 L334.513,105.487 L323.019,118.729 C320.266,121.905 318.945,125.085 319.06,128.273 C319.176,131.46 320.515,134.167 323.077,136.391 C325.661,138.634 328.54,139.588 331.712,139.253 M307.74,116.93 L295.574,110.421 L307.204,88.679 L302.271,86.039 L288.011,112.691 L305.112,121.84 z M399.381,230.656 L399.898,237.321 C399.994,238.585 399.749,239.6 399.159,240.361 C398.569,241.121 397.699,241.546 396.55,241.635 C395.372,241.728 394.444,241.441 393.757,240.78 C393.069,240.121 392.676,239.156 392.579,237.888 L392.061,231.227 z M374.666,232.576 L386.851,231.631 L387.217,236.317 L375.643,245.171 L376.147,251.64 L388.37,242.272 C389.108,243.981 390.257,245.274 391.812,246.155 C393.368,247.035 395.151,247.397 397.159,247.24 C399.802,247.035 401.873,246.031 403.379,244.224 C404.915,242.441 405.572,240.104 405.348,237.211 L404.371,224.655 L374.233,226.997 z M280.274,85.547 L280.661,96.757 L273.114,94.2 z M265.026,104.274 L269.811,98.508 L280.707,102.199 L281.002,109.686 L286.634,111.592 L285.343,79.057 L280.261,77.335 L259.469,102.391 z M373.662,223.599 L379.064,222.237 L375.44,207.878 L382.978,205.977 L385.811,217.207 L391.13,215.866 L388.295,204.635 L393.948,203.209 L397.465,217.153 L402.869,215.791 L397.979,196.419 L368.67,203.813 z M364.057,192.511 L396.496,190.898 L394.084,185.337 L370.944,186.685 L387.757,170.751 L385.301,165.081 L361.954,187.66 z M104.64,158.083 L89.746,145.596 L113.53,147.477 L116.501,143.933 L93.334,124.514 L89.838,128.683 L104.665,141.111 L81.024,139.197 L77.952,142.86 L101.119,162.279 z M355.989,175.579 L381.997,160.173 L379.164,155.39 L353.155,170.797 z M239.65,78.833 L244.688,89.307 L247.77,89.717 L255.253,80.911 L252.523,101.416 L257.994,102.142 L261.986,72.178 L256.515,71.45 L247.042,82.823 L240.872,69.366 L235.363,68.634 L231.373,98.598 L236.922,99.336 z M371.756,283.937 L401.341,290.151 L402.482,284.711 L372.898,278.497 z M154.285,116.216 L145.981,98.644 L166.794,110.306 L170.977,108.329 L158.062,80.996 L153.143,83.321 L161.407,100.814 L140.738,89.183 L136.416,91.225 L149.329,118.557 z M392.234,302.57 L368.825,294.825 L367.067,300.137 L390.477,307.884 L387.765,316.075 L393.054,317.826 L400.222,296.168 L394.935,294.417 z M123.825,121.683 L117.681,126.752 L114.088,116.114 z M121.991,138.931 L119.603,131.83 L128.476,124.507 L134.998,128.194 L139.584,124.409 L111.237,108.387 L107.101,111.802 L117.463,142.667 z M176.556,83.488 C177.659,81.283 179.379,79.888 181.718,79.302 C184.03,78.724 186.193,79.147 188.206,80.572 C190.218,81.997 191.572,84.089 192.262,86.855 C192.957,89.62 192.75,92.104 191.647,94.311 C190.543,96.516 188.835,97.91 186.524,98.487 C184.187,99.073 182.011,98.654 179.998,97.23 C178.017,95.826 176.676,93.727 175.977,90.934 C175.278,88.143 175.471,85.658 176.556,83.488 M177.025,102.157 C180.356,104.471 183.992,105.132 187.94,104.142 C191.861,103.161 194.744,100.866 196.591,97.257 C198.457,93.616 198.863,89.683 197.807,85.467 C196.744,81.222 194.532,77.948 191.179,75.641 C187.848,73.331 184.222,72.663 180.301,73.647 C176.354,74.634 173.458,76.933 171.611,80.542 C169.749,84.095 169.357,88.022 170.435,92.323 C171.498,96.566 173.694,99.847 177.025,102.157 M215.686,74.473 C216.954,74.402 217.963,74.668 218.712,75.276 C219.456,75.883 219.862,76.762 219.929,77.911 C219.994,79.09 219.689,80.015 219.013,80.685 C218.337,81.361 217.364,81.729 216.098,81.802 L209.422,82.174 L209.012,74.845 z M210.399,99.596 L209.715,87.394 L214.41,87.131 L223.011,98.889 L229.49,98.525 L220.385,86.101 C222.113,85.4 223.432,84.281 224.346,82.746 C225.258,81.208 225.658,79.436 225.545,77.425 C225.398,74.779 224.436,72.684 222.664,71.14 C220.913,69.565 218.59,68.858 215.693,69.021 L203.121,69.726 L204.811,99.908 z M404.03,258.318 C402.67,256.35 400.655,255.251 397.988,255.019 C396.555,254.891 395.123,255.078 393.692,255.576 C392.943,255.875 391.994,256.649 390.843,257.902 C390.552,258.241 390.201,258.793 389.786,259.563 C389.303,260.459 389.006,261.042 388.895,261.319 L387.987,263.269 L387.064,265.371 L386.64,266.273 C386.324,266.892 386.02,267.388 385.73,267.752 C385.161,268.637 384.288,269.03 383.112,268.928 C382.022,268.832 381.213,268.267 380.681,267.231 C380.15,266.193 379.953,264.915 380.087,263.394 C380.248,261.561 380.798,259.737 381.738,257.921 C382.704,256.132 383.78,254.718 384.97,253.678 L378.518,253.111 C376.122,255.712 374.746,259.049 374.388,263.126 C374.116,266.225 374.721,268.865 376.206,271.051 C377.689,273.238 379.88,274.457 382.778,274.711 C385.558,274.955 387.732,274.236 389.297,272.552 C390.763,270.989 391.981,269.12 392.952,266.942 C393.276,266.216 393.678,265.264 394.159,264.085 C394.498,263.204 394.862,262.494 395.255,261.957 C395.856,261.047 396.586,260.63 397.446,260.706 C399.425,260.877 400.281,262.501 400.009,265.574 C399.737,268.668 398.534,271.516 396.4,274.112 L402.421,274.642 C404.325,272.051 405.417,269.168 405.695,265.995 C405.971,262.846 405.417,260.285 404.03,258.318 M232.813,220.12 L273.267,250.605 L273.267,237.83 L232.813,207.345 z M232.813,252.546 L273.267,283.029 L273.267,270.256 L232.813,239.773 z M176.033,250.605 L216.49,220.12 L216.49,207.345 L176.033,237.83 z M176.033,283.029 L216.49,252.546 L216.49,239.773 L176.033,270.256 z M304.317,241.575 C307.777,244.184 308.47,249.102 305.861,252.565 C303.252,256.025 298.331,256.718 294.871,254.109 L289.59,250.13 L289.59,262.905 L304.317,274.001 C307.777,276.61 308.47,281.529 305.861,284.992 C303.252,288.454 298.331,289.145 294.871,286.536 L289.59,282.558 L289.59,295.331 L304.317,306.428 C307.777,309.037 308.47,313.958 305.861,317.418 C303.252,320.879 298.331,321.571 294.871,318.962 L232.813,272.2 L232.813,284.973 L296.429,332.913 C299.89,335.52 300.582,340.442 297.974,343.903 C295.367,347.363 290.446,348.054 286.983,345.447 L232.813,304.627 L232.813,348.001 C232.813,352.51 229.158,356.163 224.651,356.163 C220.143,356.163 216.49,352.51 216.49,348.001 L216.49,304.627 L162.315,345.447 C158.855,348.054 153.934,347.363 151.327,343.903 C148.718,340.442 149.411,335.52 152.871,332.913 L216.49,284.973 L216.49,272.2 L154.43,318.962 C150.969,321.571 146.048,320.879 143.439,317.418 C140.833,313.958 141.523,309.037 144.983,306.428 L159.71,295.331 L159.71,282.558 L154.43,286.536 C150.969,289.145 146.048,288.454 143.439,284.992 C140.833,281.529 141.523,276.61 144.983,274.001 L159.71,262.905 L159.71,250.13 L154.43,254.109 C150.969,256.718 146.048,256.025 143.439,252.565 C140.833,249.102 141.523,244.184 144.983,241.575 L216.49,187.693 L216.49,174.92 L154.43,221.685 C150.969,224.293 146.048,223.601 143.439,220.141 C140.833,216.678 141.523,211.759 144.983,209.15 L159.71,198.053 L159.71,179.534 C159.71,175.027 163.365,171.372 167.872,171.372 C172.38,171.372 176.033,175.027 176.033,179.534 L176.033,185.751 L216.49,155.269 L216.49,139.887 C216.49,135.38 220.143,131.725 224.651,131.725 C229.158,131.725 232.813,135.38 232.813,139.887 L232.813,155.269 L273.267,185.751 L273.267,179.534 C273.267,175.027 276.92,171.372 281.429,171.372 C285.935,171.372 289.59,175.027 289.59,179.534 L289.59,198.053 L304.317,209.15 C307.777,211.759 308.47,216.678 305.861,220.141 C303.252,223.601 298.331,224.293 294.871,221.685 L232.813,174.92 L232.813,187.693 z M224.653,123.867 C154.997,123.991 98.642,180.339 98.514,249.996 C98.642,319.663 154.997,375.999 224.653,376.127 C294.312,375.999 350.652,319.663 350.784,249.996 C350.652,180.339 294.312,123.991 224.653,123.867 M224.647,384.018 C150.639,383.876 90.763,324.023 90.627,249.998 C90.763,175.987 150.639,116.111 224.647,115.984 C298.662,116.111 358.525,175.987 358.661,249.998 C358.525,324.023 298.662,383.876 224.647,384.018 M224.647,111.251 C148.025,111.387 86.037,173.372 85.896,249.998 C86.037,326.636 148.025,388.602 224.647,388.747 C301.271,388.602 363.249,326.636 363.392,249.998 C363.249,173.372 301.271,111.387 224.647,111.251 M224.647,447.085 C115.812,446.882 27.761,358.856 27.558,249.998 C27.761,141.155 115.812,53.106 224.647,52.913 C333.496,53.106 421.527,141.155 421.732,249.998 C421.527,358.856 333.496,446.882 224.647,447.085 M224.647,45.03 C111.456,45.231 19.882,136.803 19.677,249.998 C19.882,363.212 111.456,454.755 224.647,454.97 C337.846,454.755 429.406,363.212 429.615,249.998 C429.406,136.803 337.846,45.231 224.647,45.03" fill="#A42035"></path><path d="M666.082,376.123 L623.017,320.846 L612.549,320.846 L612.549,397.168 L624.326,397.168 L624.326,341.671 L667.718,397.168 L677.857,397.168 L677.857,320.846 L666.082,320.846 z M991.63,358.132 C987.63,355.952 982.977,354.063 977.673,352.463 L968.949,349.956 C968.514,349.812 967.788,349.559 966.769,349.195 C965.75,348.831 964.844,348.485 964.043,348.157 C963.243,347.833 962.626,347.523 962.191,347.228 C959.21,345.125 957.72,342.835 957.72,340.362 C957.72,337.458 959.044,335.112 961.701,333.33 C964.352,331.549 968.223,330.66 973.311,330.66 C981.667,330.66 989.737,333.022 997.517,337.744 L997.517,325.754 C990.463,321.538 982.322,319.429 973.091,319.429 C964.587,319.429 957.848,321.321 952.868,325.097 C947.889,328.88 945.397,333.93 945.397,340.253 C945.397,347.228 948.017,352.356 953.251,355.626 C956.375,357.444 958.919,358.718 960.883,359.442 C963.352,360.388 966.662,361.442 970.805,362.603 L972.33,363.041 C977.2,364.422 980.688,365.622 982.795,366.639 C984.542,367.365 985.851,368.131 986.722,368.93 C988.973,370.891 990.101,373.253 990.101,376.014 C990.101,379.504 988.448,382.268 985.14,384.301 C981.83,386.335 977.598,387.354 972.441,387.354 C967.206,387.354 961.971,386.373 956.739,384.412 C951.504,382.374 947.397,380.05 944.418,377.433 L944.418,390.408 C951.904,395.858 961.463,398.582 973.091,398.582 C981.452,398.582 988.429,396.551 994.026,392.475 C999.622,388.408 1002.421,382.847 1002.421,375.797 C1001.984,367.656 998.388,361.769 991.63,358.132 M695.41,397.168 L707.404,397.168 L707.404,320.848 L695.41,320.848 z M815.779,361.951 L850.231,361.951 L850.231,350.94 L815.779,350.94 L815.779,331.857 L858.08,331.857 L858.08,320.846 L803.782,320.846 L803.782,397.168 L859.499,397.168 L859.499,386.153 L815.779,386.153 z M883.22,354.318 L883.22,331.857 L905.244,331.857 C909.606,331.857 913.004,332.842 915.439,334.803 C917.875,336.765 919.092,339.489 919.092,342.981 C919.092,346.615 917.875,349.41 915.439,351.375 C913.004,353.335 909.606,354.318 905.244,354.318 z M926.779,356.116 C929.721,352.373 931.193,347.849 931.193,342.542 C931.193,336.148 928.94,330.915 924.434,326.842 C920,322.846 913.86,320.846 906.01,320.846 L871.23,320.846 L871.23,397.168 L883.22,397.168 L883.22,364.892 L901.102,364.892 L924.109,397.168 L938.608,397.168 L914.621,363.587 C919.781,362.352 923.835,359.861 926.779,356.116 M584.102,365.33 C584.102,372.382 582.305,377.816 578.707,381.632 C575.11,385.446 570.221,387.354 564.042,387.354 C557.862,387.354 552.994,385.446 549.435,381.632 C545.87,377.816 544.087,372.382 544.087,365.33 L544.087,320.846 L532.097,320.846 L532.097,364.892 C532.097,375.652 535.039,383.973 540.93,389.862 C546.958,395.679 554.667,398.582 564.042,398.582 C573.418,398.582 581.123,395.641 587.157,389.754 C593.115,383.864 596.097,375.577 596.097,364.892 L596.097,320.846 L584.102,320.846 z M1015.822,397.168 L1027.814,397.168 L1027.814,320.848 L1015.822,320.848 z M755.909,381.031 L730.617,320.846 L717.315,320.846 L750.131,397.603 L761.47,397.603 L794.179,320.846 L781.206,320.846 z M1142.586,351.701 L1120.78,320.846 L1106.825,320.846 L1136.373,362.603 L1136.373,397.168 L1148.365,397.168 L1148.365,362.277 L1177.913,320.846 L1164.393,320.846 z M1038.085,331.857 L1063.27,331.857 L1063.27,397.168 L1075.265,397.168 L1075.265,331.857 L1100.557,331.857 L1100.557,320.846 L1038.085,320.846 z M715.712,222.832 L737.735,222.832 C742.097,222.832 745.492,223.815 747.93,225.777 C750.365,227.74 751.583,230.466 751.583,233.956 C751.583,237.59 750.365,240.385 747.93,242.352 C745.492,244.312 742.097,245.293 737.735,245.293 L715.712,245.293 z M756.598,288.141 L771.098,288.141 L747.112,254.562 C752.273,253.327 756.323,250.835 759.269,247.09 C762.211,243.35 763.684,238.826 763.684,233.519 C763.684,227.123 761.428,221.888 756.922,217.819 C752.489,213.821 746.348,211.823 738.498,211.823 L703.716,211.823 L703.716,288.141 L715.712,288.141 L715.712,255.867 L733.592,255.867 z M586.611,267.1 L543.543,211.823 L533.078,211.823 L533.078,288.141 L544.853,288.141 L544.853,232.646 L588.245,288.141 L598.385,288.141 L598.385,211.823 L586.611,211.823 z M669.996,270.259 C664.833,275.64 658.51,278.329 651.025,278.329 C643.539,278.329 637.216,275.64 632.055,270.259 C626.967,264.882 624.42,258.122 624.42,249.98 C624.42,241.841 626.967,235.119 632.055,229.809 C637.216,224.361 643.539,221.635 651.025,221.635 C658.51,221.635 664.833,224.361 669.996,229.809 C675.158,235.192 677.737,241.917 677.737,249.98 C677.737,257.976 675.158,264.74 669.996,270.259 M651.025,210.404 C639.831,210.404 630.528,214.22 623.115,221.853 C615.771,229.414 612.102,238.787 612.102,249.98 C612.102,261.104 615.771,270.516 623.115,278.22 C630.528,285.779 639.831,289.559 651.025,289.559 C662.218,289.559 671.524,285.779 678.938,278.22 C686.351,270.59 690.056,261.177 690.056,249.98 C690.056,238.787 686.351,229.414 678.938,221.853 C671.524,214.22 662.218,210.404 651.025,210.404 M888.869,258.595 L902.824,226.539 L916.78,258.595 z M897.156,211.388 L863.792,288.141 L876.548,288.141 L884.726,269.169 L920.923,269.169 L929.208,288.141 L942.075,288.141 L908.713,211.388 z M780.852,211.823 L780.852,288.141 L792.847,288.141 L792.847,230.14 L814.107,258.922 L821.087,258.922 L842.347,230.14 L842.347,288.141 L854.338,288.141 L854.338,211.823 L842.347,211.823 L817.815,246.166 L793.066,211.823 z M963.564,211.823 L951.46,211.823 L951.46,288.141 L1004.122,288.141 L1004.122,277.13 L963.564,277.13 z M1141.072,117.512 L1155.029,149.568 L1127.115,149.568 z M1122.972,160.144 L1159.171,160.144 L1167.458,179.116 L1180.323,179.116 L1146.959,102.358 L1135.404,102.358 L1102.04,179.116 L1114.794,179.116 z M997.733,179.116 L1009.725,179.116 L1009.725,102.795 L997.733,102.795 z M928.392,143.898 L968.187,143.898 L968.187,179.116 L980.18,179.116 L980.18,102.793 L968.187,102.793 L968.187,132.887 L928.392,132.887 L928.392,102.793 L916.4,102.793 L916.4,179.116 L928.392,179.116 z M769.19,179.116 L781.183,179.116 L781.183,113.804 L806.477,113.804 L806.477,102.793 L744.005,102.793 L744.005,113.804 L769.19,113.804 z M1039.055,123.621 L1082.449,179.116 L1092.588,179.116 L1092.588,102.793 L1080.813,102.793 L1080.813,158.071 L1037.746,102.793 L1027.279,102.793 L1027.279,179.116 L1039.055,179.116 z M729.973,174.425 C735.569,170.356 738.366,164.795 738.366,157.744 C737.931,149.604 734.335,143.716 727.575,140.082 C723.577,137.902 718.922,136.011 713.618,134.412 L704.896,131.906 C704.461,131.759 703.733,131.506 702.714,131.142 C701.697,130.778 700.787,130.433 699.99,130.105 C699.19,129.78 698.571,129.471 698.136,129.178 C695.155,127.073 693.665,124.782 693.665,122.311 C693.665,119.405 694.992,117.062 697.644,115.277 C700.297,113.499 704.17,112.608 709.258,112.608 C717.614,112.608 725.684,114.972 733.46,119.694 L733.46,107.702 C726.41,103.488 718.269,101.379 709.038,101.379 C700.534,101.379 693.791,103.268 688.815,107.047 C683.836,110.827 681.344,115.878 681.344,122.202 C681.344,129.178 683.962,134.304 689.196,137.574 C692.32,139.394 694.866,140.664 696.826,141.392 C699.299,142.335 702.605,143.392 706.75,144.549 L708.277,144.988 C713.143,146.371 716.633,147.572 718.742,148.587 C720.487,149.313 721.794,150.079 722.669,150.878 C724.92,152.838 726.048,155.2 726.048,157.962 C726.048,161.454 724.395,164.215 721.087,166.251 C717.777,168.283 713.545,169.304 708.386,169.304 C703.151,169.304 697.916,168.322 692.684,166.358 C687.451,164.324 683.344,161.998 680.365,159.38 L680.365,172.356 C687.849,177.806 697.408,180.532 709.038,180.532 C717.399,180.532 724.374,178.499 729.973,174.425 M881.05,180.532 C889.555,180.532 897.005,178.499 903.405,174.425 L903.405,162.324 C897.587,166.975 890.319,169.304 881.596,169.304 C873.383,169.304 866.587,166.651 861.21,161.343 C855.827,155.966 853.141,149.168 853.141,140.955 C853.141,132.741 855.792,125.981 861.099,120.673 C866.478,115.296 873.163,112.608 881.161,112.608 C888.722,112.608 895.589,114.608 901.769,118.602 L901.769,106.501 C895.735,103.086 888.827,101.379 881.05,101.379 C869.42,101.379 859.825,105.122 852.266,112.608 C844.636,120.022 840.82,129.471 840.82,140.955 C840.82,152.441 844.636,161.924 852.266,169.41 C860.043,176.825 869.638,180.532 881.05,180.532 M588.793,168.101 L545.073,168.101 L545.073,143.898 L579.525,143.898 L579.525,132.887 L545.073,132.887 L545.073,113.804 L587.374,113.804 L587.374,102.793 L533.078,102.793 L533.078,179.116 L588.793,179.116 z M634.986,117.512 L648.943,149.568 L621.029,149.568 z M653.085,160.144 L661.372,179.116 L674.237,179.116 L640.873,102.358 L629.318,102.358 L595.956,179.116 L608.71,179.116 L616.887,160.144 z" fill="#A42035"></path></g></svg> 